<?xml version="1.0" standalone="no"?>
<!DOCTYPE svg PUBLIC "-//W3C//DTD SVG 20010904//EN"
 "http://www.w3.org/TR/2001/REC-SVG-20010904/DTD/svg10.dtd">
<svg version="1.0" xmlns="http://www.w3.org/2000/svg"
 width="1556.000000pt" height="1200.000000pt" viewBox="0 0 1556.000000 1200.000000"
 preserveAspectRatio="xMidYMid meet">

<g transform="translate(0.000000,1200.000000) scale(0.100000,-0.100000)"
fill="#000000" stroke="none">
<path d="M4198 9018 l-3 -303 -247 -3 -248 -2 0 220 0 220 -595 0 -595 0 0
-219 0 -218 -172 -6 c-102 -3 -204 -13 -248 -22 -321 -71 -515 -276 -561 -596
l-12 -84 -155 -105 c-438 -297 -445 -303 -472 -355 -22 -43 -25 -62 -25 -150
0 -108 15 -154 68 -203 14 -13 150 -92 304 -175 l278 -152 5 -2341 5 -2341 30
-48 c35 -57 100 -110 153 -125 25 -7 1871 -10 5833 -10 l5796 0 62 31 c61 30
91 61 127 129 18 34 19 112 22 2360 l3 2325 267 144 c147 79 279 153 295 164
101 69 115 309 25 409 -18 20 -123 97 -233 171 -110 74 -235 158 -277 188
l-78 53 0 476 c0 537 -1 544 -70 623 -22 25 -62 56 -88 69 l-47 23 -3405 0
-3405 0 -67 -33 c-44 -21 -84 -51 -117 -88 l-51 -56 0 -139 0 -139 -120 0
-120 0 0 305 0 305 -930 0 -930 0 -2 -302z m1822 -8 l0 -270 -895 0 -895 0 0
270 0 270 895 0 895 0 0 -270z m7355 101 c22 -10 54 -34 72 -52 67 -71 63 3
63 -1187 l0 -1079 -437 -6 c-240 -4 -762 -7 -1161 -7 l-724 0 -117 112 c-548
527 -1210 798 -1956 798 -442 0 -867 -100 -1253 -296 l-106 -54 -1087 0 -1087
0 -4 123 c-4 133 -14 164 -72 225 -121 129 -340 95 -417 -65 -19 -39 -24 -69
-27 -165 l-4 -118 -1755 0 -1755 0 4 378 c4 347 6 383 26 455 81 295 296 461
644 497 61 6 826 10 2075 10 1088 0 1990 0 2006 0 l27 0 0 143 c0 141 0 144
28 179 39 51 85 87 140 109 45 17 163 18 3442 18 3286 1 3396 0 3435 -18z
m-7954 -1402 c55 -27 106 -93 118 -151 10 -45 16 -348 7 -348 -2 0 -25 9 -51
21 -93 41 -252 36 -347 -12 -21 -11 -40 -19 -43 -19 -3 0 -5 83 -5 183 0 172
1 187 23 227 58 110 189 154 298 99z m3964 -64 c77 -8 178 -22 225 -31 1064
-196 1923 -1004 2180 -2049 165 -670 67 -1409 -265 -1995 -377 -666 -996
-1145 -1721 -1330 -1230 -315 -2492 237 -3109 1358 -240 436 -354 951 -325
1462 27 468 161 894 409 1295 177 287 458 587 736 787 541 389 1221 572 1870
503z m-8128 -30 c63 -19 126 -84 143 -146 26 -96 -21 -198 -111 -243 -66 -33
-118 -33 -186 -1 -90 41 -139 148 -113 244 16 60 81 127 139 145 60 19 68 19
128 1z m12700 -40 c199 -100 130 -395 -92 -395 -66 0 -109 16 -149 56 -88 88
-86 232 5 308 74 63 152 73 236 31z m-8897 -336 c0 -59 -1 -63 -50 -115 -119
-131 -155 -305 -96 -472 51 -144 195 -260 354 -284 173 -27 355 57 449 206
116 182 74 445 -91 581 -44 36 -46 39 -46 91 l0 54 1052 0 1052 0 -99 -66
c-592 -395 -1010 -985 -1174 -1656 -62 -253 -75 -365 -75 -668 0 -235 3 -295
22 -415 79 -504 274 -945 592 -1344 88 -109 301 -327 376 -383 24 -18 44 -35
44 -38 0 -7 -3557 -2 -4827 6 l-993 6 0 139 0 138 908 3 907 3 41 22 c54 29
117 101 132 151 18 58 17 3637 0 3696 -8 25 -32 61 -63 93 -85 88 -29 83
-1042 83 l-883 0 0 115 0 115 1755 0 1755 0 0 -61z m418 -39 c185 -65 304
-278 263 -469 -27 -125 -122 -244 -238 -299 -52 -24 -69 -27 -168 -27 -99 0
-116 3 -168 27 -66 31 -156 112 -192 173 -13 24 -32 69 -40 101 -84 324 226
605 543 494z m8032 -2472 l0 -2021 -937 6 c-516 4 -1113 7 -1328 7 l-390 0 65
57 c485 421 806 965 929 1570 42 208 54 328 54 558 0 229 -11 348 -54 558 -88
434 -275 832 -556 1183 -40 51 -73 95 -73 98 0 3 515 6 1145 6 l1145 0 0
-2022z m-5937 -2142 c466 -310 982 -466 1547 -466 562 0 1080 157 1543 467
l139 93 1354 0 1355 0 -3 -249 -3 -249 -30 -43 c-17 -24 -53 -57 -80 -74 l-48
-30 -5811 0 -5811 0 -40 22 c-47 25 -85 64 -111 113 -17 31 -19 64 -22 284
l-3 249 2936 -8 2936 -7 152 -102z"/>
<path d="M4350 9010 c0 -207 2 -240 15 -240 13 0 15 33 15 240 0 207 -2 240
-15 240 -13 0 -15 -33 -15 -240z"/>
<path d="M4600 9010 c0 -207 2 -240 15 -240 13 0 15 33 15 240 0 207 -2 240
-15 240 -13 0 -15 -33 -15 -240z"/>
<path d="M4860 9010 c0 -207 2 -240 15 -240 13 0 15 33 15 240 0 207 -2 240
-15 240 -13 0 -15 -33 -15 -240z"/>
<path d="M5110 9010 c0 -207 2 -240 15 -240 13 0 15 33 15 240 0 207 -2 240
-15 240 -13 0 -15 -33 -15 -240z"/>
<path d="M5360 9010 c0 -233 1 -240 20 -240 19 0 20 7 20 240 0 233 -1 240
-20 240 -19 0 -20 -7 -20 -240z"/>
<path d="M5620 9010 c0 -207 2 -240 15 -240 13 0 15 33 15 240 0 207 -2 240
-15 240 -13 0 -15 -33 -15 -240z"/>
<path d="M5870 9010 c0 -207 2 -240 15 -240 13 0 15 33 15 240 0 207 -2 240
-15 240 -13 0 -15 -33 -15 -240z"/>
<path d="M11059 8924 c-103 -31 -192 -124 -220 -226 -6 -24 -9 -267 -7 -660 3
-614 3 -624 25 -670 32 -69 94 -131 162 -162 l59 -26 874 2 873 3 43 23 c66
35 119 88 149 150 l28 57 0 635 c0 603 -1 638 -19 685 -26 65 -103 147 -169
176 l-52 24 -850 2 c-715 2 -857 0 -896 -13z m1791 -48 c49 -26 108 -84 133
-131 22 -40 22 -46 25 -669 3 -698 4 -685 -62 -762 -19 -22 -58 -53 -87 -69
l-54 -30 -865 0 -865 0 -51 27 c-59 31 -108 84 -138 147 -21 45 -21 57 -21
666 l0 620 26 55 c32 69 79 116 144 147 l50 23 865 -2 c821 -3 867 -4 900 -22z"/>
<path d="M11180 8080 l0 -460 760 0 760 0 0 460 0 460 -760 0 -760 0 0 -460z"/>
<path d="M7361 8824 c-307 -82 -495 -419 -405 -726 52 -177 195 -328 367 -388
78 -27 223 -37 309 -21 35 7 100 30 145 52 356 175 432 654 148 934 -69 68
-171 126 -261 150 -73 19 -231 19 -303 -1z"/>
<path d="M4494 8561 c-2 -2 -4 -112 -4 -243 l0 -238 650 0 650 0 0 240 0 240
-646 2 c-355 2 -648 1 -650 -1z"/>
<path d="M8875 7454 c-16 -2 -66 -9 -110 -15 -897 -119 -1686 -738 -2024
-1587 -388 -972 -143 -2082 617 -2803 383 -363 837 -586 1377 -676 138 -23
599 -26 735 -5 570 88 1055 331 1453 727 592 590 855 1415 716 2243 -40 241
-119 479 -236 714 -330 660 -940 1151 -1655 1333 -213 55 -317 67 -588 70
-140 2 -268 1 -285 -1z m625 -53 c147 -23 314 -66 460 -116 140 -48 401 -177
530 -262 636 -418 1047 -1083 1135 -1833 78 -663 -122 -1347 -550 -1878 -337
-418 -835 -732 -1368 -861 -221 -54 -327 -65 -597 -65 -222 0 -260 3 -401 27
-367 64 -684 190 -986 390 -940 623 -1352 1794 -1011 2867 121 383 330 723
622 1016 423 422 948 672 1546 734 138 14 477 4 620 -19z"/>
<path d="M8948 6879 c-458 -37 -901 -243 -1229 -572 -168 -168 -274 -317 -379
-532 -142 -290 -203 -557 -202 -880 3 -697 361 -1327 962 -1691 516 -313 1178
-367 1745 -143 1086 430 1567 1702 1038 2742 -367 720 -1126 1142 -1935 1076z"/>
<path d="M6184 7101 c-105 -27 -199 -103 -246 -199 -31 -62 -33 -74 -33 -167
0 -83 4 -109 23 -149 132 -289 536 -300 674 -18 31 63 33 73 33 172 0 101 -1
108 -34 168 -66 121 -176 191 -311 198 -41 2 -89 0 -106 -5z m210 -51 c73 -28
147 -99 183 -175 23 -50 28 -73 28 -140 0 -71 -4 -89 -33 -147 -36 -73 -86
-123 -161 -160 -38 -19 -62 -23 -141 -23 -81 0 -103 4 -145 25 -138 68 -216
224 -186 372 23 110 114 216 216 252 61 22 174 20 239 -4z"/>
<path d="M5242 7045 c-93 -41 -155 -129 -156 -224 0 -73 18 -125 62 -173 55
-61 104 -82 187 -82 80 0 129 20 182 76 116 120 73 329 -82 399 -48 22 -146
24 -193 4z m204 -50 c80 -47 123 -162 94 -250 -28 -84 -117 -148 -205 -147
-63 1 -93 12 -140 54 -129 113 -84 315 83 369 43 14 120 2 168 -26z"/>
</g>
</svg>
